<svg width="512" height="512" viewBox="0 0 512 512" xmlns="http://www.w3.org/2000/svg" fill="none">
  <defs>
    <linearGradient id="bg" x1="64" y1="48" x2="448" y2="464" gradientUnits="userSpaceOnUse">
      <stop stop-color="#1a0f2d"/>
      <stop offset="0.4" stop-color="#132a45"/>
      <stop offset="1" stop-color="#052c3d"/>
    </linearGradient>
    <linearGradient id="accent" x1="120" y1="96" x2="408" y2="420" gradientUnits="userSpaceOnUse">
      <stop stop-color="#7bf3ff"/>
      <stop offset="0.35" stop-color="#6ad1ff"/>
      <stop offset="0.7" stop-color="#9b7bff"/>
      <stop offset="1" stop-color="#ff6bdc"/>
    </linearGradient>
    <radialGradient id="glow" cx="50%" cy="40%" r="70%">
      <stop stop-color="#6fffff" stop-opacity="0.22"/>
      <stop offset="1" stop-color="#6fffff" stop-opacity="0"/>
    </radialGradient>
    <filter id="shadow" x="-20%" y="-20%" width="140%" height="140%" color-interpolation-filters="sRGB">
      <feDropShadow dx="0" dy="16" stdDeviation="18" flood-color="#00c8ff" flood-opacity="0.28"/>
      <feDropShadow dx="0" dy="28" stdDeviation="26" flood-color="#5d2dff" flood-opacity="0.24"/>
    </filter>
  </defs>
  <rect x="20" y="20" width="472" height="472" rx="116" fill="url(#bg)" stroke="#1a9fe8" stroke-opacity="0.16" stroke-width="6"/>
  <rect x="60" y="44" width="392" height="392" rx="96" fill="url(#glow)"/>
  <path d="M343 142c-31-39-83-56-142-45-49 10-88 41-94 83-7 49 26 84 95 107l54 18c32 11 48 27 46 49-2 20-18 35-42 41-32 7-66-1-87-19-16-14-24-32-22-52l-46-6c-4 32 8 63 35 87 31 27 78 41 127 34 60-9 104-46 110-93 5-41-18-72-67-89l-52-17c-55-18-79-38-76-69 2-21 21-42 52-50 41-10 87 5 113 35z" stroke="url(#accent)" stroke-width="22" stroke-linecap="round" stroke-linejoin="round" filter="url(#shadow)"/>
  <path d="M352 282c36-12 82 10 87 48 4 30-21 55-63 60-34 4-66-11-77-36" stroke="url(#accent)" stroke-width="16" stroke-linecap="round" stroke-linejoin="round" filter="url(#shadow)"/>
  <circle cx="215" cy="156" r="10" fill="#7bf3ff" stroke="#0a1a2d" stroke-width="4"/>
  <circle cx="173" cy="216" r="9" fill="#6ad1ff" stroke="#0a1a2d" stroke-width="4"/>
  <circle cx="288" cy="248" r="10" fill="#9b7bff" stroke="#0a1a2d" stroke-width="4"/>
  <circle cx="260" cy="326" r="10" fill="#7bf3ff" stroke="#0a1a2d" stroke-width="4"/>
  <circle cx="320" cy="358" r="10" fill="#ff6bdc" stroke="#0a1a2d" stroke-width="4"/>
  <circle cx="382" cy="310" r="9" fill="#6ad1ff" stroke="#0a1a2d" stroke-width="4"/>
  <path d="M110 370c18 46 74 76 140 76 62 0 120-28 148-70" stroke="#7bf3ff" stroke-opacity="0.22" stroke-width="12" stroke-linecap="round"/>
</svg>
