<svg width="256" height="256" viewBox="0 0 256 256" xmlns="http://www.w3.org/2000/svg" fill="none">
  <defs>
    <linearGradient id="g" x1="0" y1="0" x2="1" y2="1">
      <stop stop-color="#63b3ff" offset="0%"/>
      <stop stop-color="#0e7de9" offset="50%"/>
      <stop stop-color="#0561c2" offset="100%"/>
    </linearGradient>
    <linearGradient id="s" x1="0" y1="0" x2="1" y2="1">
      <stop stop-color="#ffffff" offset="0%"/>
      <stop stop-color="#e4f5ff" offset="100%"/>
    </linearGradient>
  </defs>
  <rect rx="56" ry="56" x="0" y="0" width="256" height="256" fill="url(#g)"/>
  <path d="M164.5 170.8c-8.7 8.3-20.8 12.8-36.2 12.8-14.9 0-27.3-4.3-37.2-12.8-9.9-8.6-14.9-19.1-14.9-31.6h29.2c0 6.8 2.4 12.1 7.3 15.9 4.9 3.8 10.8 5.7 17.7 5.7 6.7 0 12.1-1.6 16.2-4.9 4.2-3.4 6.3-7.4 6.3-12.2 0-4.9-2.1-8.7-6.4-11.5-4.1-2.9-10-5.6-17.6-8.2-7.6-2.7-13.7-5.1-18.4-7.3-16.3-7.9-24.4-18.6-24.4-32 0-11 4.4-19.7 13.1-26.1 8.9-6.6 20-9.9 33.4-9.9 13.4 0 24.6 3.5 33.6 10.5 9.1 6.9 13.7 16.5 13.7 28.6H171c0-6.1-2.4-11.1-7.1-15-4.6-3.9-10.5-5.8-17.7-5.8-6.5 0-11.7 1.4-15.7 4.3-4 2.9-6.1 6.6-6.1 11 0 4.3 2 7.8 6 10.4 4.1 2.6 10.2 5.3 18.3 7.9 8.1 2.7 14.7 5.3 19.7 8 11.8 6.4 17.7 15.7 17.7 27.9 0 12.9-4.4 23.2-13.6 31.5z" fill="url(#s)"/>
</svg>
